<?xml version="1.0" standalone="no"?>
<!DOCTYPE svg PUBLIC "-//W3C//DTD SVG 20010904//EN"
 "http://www.w3.org/TR/2001/REC-SVG-20010904/DTD/svg10.dtd">
<svg version="1.0" xmlns="http://www.w3.org/2000/svg"
 width="1000.000000pt" height="1000.000000pt" viewBox="0 0 1000.000000 1000.000000"
 preserveAspectRatio="xMidYMid meet">
<metadata>
Created by potrace 1.11, written by Peter Selinger 2001-2013
</metadata>
<g transform="translate(0.000000,1000.000000) scale(0.100000,-0.100000)"
fill="#000000" stroke="none">
<path d="M4725 9389 c-271 -15 -600 -60 -774 -105 -547 -143 -1235 -476 -1631
-792 -288 -229 -590 -532 -813 -814 -319 -402 -649 -1083 -791 -1630 -31 -119
-70 -372 -92 -588 -23 -225 -23 -695 0 -920 22 -216 61 -469 92 -588 69 -264
198 -604 334 -882 248 -502 476 -818 877 -1210 243 -240 407 -375 618 -512
511 -332 1138 -594 1607 -673 575 -95 1121 -95 1696 0 469 79 1097 341 1607
673 338 220 738 594 1038 974 319 403 648 1081 791 1629 31 120 70 372 92 589
23 225 23 695 0 920 -22 216 -61 469 -92 588 -142 548 -472 1227 -791 1630
-223 282 -525 585 -813 814 -337 268 -903 561 -1395 721 -202 66 -311 92 -496
121 -381 58 -707 75 -1064 55z m2618 -2194 c190 -49 353 -212 402 -402 23 -86
23 -3500 0 -3586 -49 -190 -212 -353 -402 -402 -86 -23 -4610 -23 -4696 0
-190 49 -353 212 -402 402 -23 86 -23 3500 0 3586 49 188 211 351 398 402 81
21 4616 22 4700 0z"/>
<path d="M5588 6821 c-13 -11 -190 -213 -393 -450 -264 -309 -375 -431 -390
-431 -12 0 -95 71 -220 190 -132 125 -207 190 -222 190 -14 0 -60 -41 -143
-127 -102 -107 -120 -131 -118 -154 2 -22 80 -101 351 -358 192 -182 357 -336
368 -341 15 -9 25 -4 53 22 19 18 258 294 530 612 378 442 496 585 496 605 0
21 -25 47 -122 131 -153 132 -159 135 -190 111z"/>
<path d="M2780 4725 l0 -275 555 0 555 0 0 275 0 275 -555 0 -555 0 0 -275z"/>
<path d="M4440 4725 l0 -275 1385 0 1385 0 0 275 0 275 -1385 0 -1385 0 0
-275z"/>
<path d="M2782 3618 l3 -273 1380 0 1380 0 3 273 2 272 -1385 0 -1385 0 2
-272z"/>
<path d="M6100 3615 l0 -275 553 2 552 3 3 273 2 272 -555 0 -555 0 0 -275z"/>
</g>
</svg>
